{
 "cells": [
  {
   "cell_type": "markdown",
   "metadata": {},
   "source": [
    "# Split the video into audio and muted video"
   ]
  },
  {
   "cell_type": "code",
   "execution_count": 1,
   "metadata": {},
   "outputs": [
    {
     "name": "stderr",
     "output_type": "stream",
     "text": [
      "ffmpeg version 4.4.2-0ubuntu0.22.04.1 Copyright (c) 2000-2021 the FFmpeg developers\n",
      "  built with gcc 11 (Ubuntu 11.2.0-19ubuntu1)\n",
      "  configuration: --prefix=/usr --extra-version=0ubuntu0.22.04.1 --toolchain=hardened --libdir=/usr/lib/x86_64-linux-gnu --incdir=/usr/include/x86_64-linux-gnu --arch=amd64 --enable-gpl --disable-stripping --enable-gnutls --enable-ladspa --enable-libaom --enable-libass --enable-libbluray --enable-libbs2b --enable-libcaca --enable-libcdio --enable-libcodec2 --enable-libdav1d --enable-libflite --enable-libfontconfig --enable-libfreetype --enable-libfribidi --enable-libgme --enable-libgsm --enable-libjack --enable-libmp3lame --enable-libmysofa --enable-libopenjpeg --enable-libopenmpt --enable-libopus --enable-libpulse --enable-librabbitmq --enable-librubberband --enable-libshine --enable-libsnappy --enable-libsoxr --enable-libspeex --enable-libsrt --enable-libssh --enable-libtheora --enable-libtwolame --enable-libvidstab --enable-libvorbis --enable-libvpx --enable-libwebp --enable-libx265 --enable-libxml2 --enable-libxvid --enable-libzimg --enable-libzmq --enable-libzvbi --enable-lv2 --enable-omx --enable-openal --enable-opencl --enable-opengl --enable-sdl2 --enable-pocketsphinx --enable-librsvg --enable-libmfx --enable-libdc1394 --enable-libdrm --enable-libiec61883 --enable-chromaprint --enable-frei0r --enable-libx264 --enable-shared\n",
      "  libavutil      56. 70.100 / 56. 70.100\n",
      "  libavcodec     58.134.100 / 58.134.100\n",
      "  libavformat    58. 76.100 / 58. 76.100\n",
      "  libavdevice    58. 13.100 / 58. 13.100\n",
      "  libavfilter     7.110.100 /  7.110.100\n",
      "  libswscale      5.  9.100 /  5.  9.100\n",
      "  libswresample   3.  9.100 /  3.  9.100\n",
      "  libpostproc    55.  9.100 / 55.  9.100\n",
      "Input #0, mov,mp4,m4a,3gp,3g2,mj2, from 'original-video/video.mp4':\n",
      "  Metadata:\n",
      "    major_brand     : isom\n",
      "    minor_version   : 512\n",
      "    compatible_brands: isomiso2avc1mp41\n",
      "    encoder         : Lavf58.76.100\n",
      "  Duration: 00:01:22.18, start: 0.000000, bitrate: 719 kb/s\n",
      "  Stream #0:0(und): Video: h264 (Main) (avc1 / 0x31637661), yuv420p(tv, bt709), 1280x640 [SAR 1:1 DAR 2:1], 581 kb/s, 29.97 fps, 29.97 tbr, 30k tbn, 59.94 tbc (default)\n",
      "    Metadata:\n",
      "      handler_name    : ISO Media file produced by Google Inc. Created on: 10/07/2023.\n",
      "      vendor_id       : [0][0][0][0]\n",
      "  Stream #0:1(und): Audio: aac (LC) (mp4a / 0x6134706D), 44100 Hz, stereo, fltp, 128 kb/s (default)\n",
      "    Metadata:\n",
      "      handler_name    : ISO Media file produced by Google Inc. Created on: 10/07/2023.\n",
      "      vendor_id       : [0][0][0][0]\n",
      "Stream mapping:\n",
      "  Stream #0:1 -> #0:0 (aac (native) -> mp3 (libmp3lame))\n",
      "Press [q] to stop, [?] for help\n",
      "Output #0, mp3, to 'temp-files/audio.mp3':\n",
      "  Metadata:\n",
      "    major_brand     : isom\n",
      "    minor_version   : 512\n",
      "    compatible_brands: isomiso2avc1mp41\n",
      "    TSSE            : Lavf58.76.100\n",
      "  Stream #0:0(und): Audio: mp3, 44100 Hz, stereo, fltp, 192 kb/s (default)\n",
      "    Metadata:\n",
      "      handler_name    : ISO Media file produced by Google Inc. Created on: 10/07/2023.\n",
      "      vendor_id       : [0][0][0][0]\n",
      "      encoder         : Lavc58.134.100 libmp3lame\n",
      "size=    1927kB time=00:01:22.13 bitrate= 192.2kbits/s speed=9.55x    \n",
      "video:0kB audio:1926kB subtitle:0kB other streams:0kB global headers:0kB muxing overhead: 0.039243%\n",
      "ffmpeg version 4.4.2-0ubuntu0.22.04.1 Copyright (c) 2000-2021 the FFmpeg developers\n",
      "  built with gcc 11 (Ubuntu 11.2.0-19ubuntu1)\n",
      "  configuration: --prefix=/usr --extra-version=0ubuntu0.22.04.1 --toolchain=hardened --libdir=/usr/lib/x86_64-linux-gnu --incdir=/usr/include/x86_64-linux-gnu --arch=amd64 --enable-gpl --disable-stripping --enable-gnutls --enable-ladspa --enable-libaom --enable-libass --enable-libbluray --enable-libbs2b --enable-libcaca --enable-libcdio --enable-libcodec2 --enable-libdav1d --enable-libflite --enable-libfontconfig --enable-libfreetype --enable-libfribidi --enable-libgme --enable-libgsm --enable-libjack --enable-libmp3lame --enable-libmysofa --enable-libopenjpeg --enable-libopenmpt --enable-libopus --enable-libpulse --enable-librabbitmq --enable-librubberband --enable-libshine --enable-libsnappy --enable-libsoxr --enable-libspeex --enable-libsrt --enable-libssh --enable-libtheora --enable-libtwolame --enable-libvidstab --enable-libvorbis --enable-libvpx --enable-libwebp --enable-libx265 --enable-libxml2 --enable-libxvid --enable-libzimg --enable-libzmq --enable-libzvbi --enable-lv2 --enable-omx --enable-openal --enable-opencl --enable-opengl --enable-sdl2 --enable-pocketsphinx --enable-librsvg --enable-libmfx --enable-libdc1394 --enable-libdrm --enable-libiec61883 --enable-chromaprint --enable-frei0r --enable-libx264 --enable-shared\n",
      "  libavutil      56. 70.100 / 56. 70.100\n",
      "  libavcodec     58.134.100 / 58.134.100\n",
      "  libavformat    58. 76.100 / 58. 76.100\n",
      "  libavdevice    58. 13.100 / 58. 13.100\n",
      "  libavfilter     7.110.100 /  7.110.100\n",
      "  libswscale      5.  9.100 /  5.  9.100\n",
      "  libswresample   3.  9.100 /  3.  9.100\n",
      "  libpostproc    55.  9.100 / 55.  9.100\n",
      "Input #0, mov,mp4,m4a,3gp,3g2,mj2, from 'original-video/video.mp4':\n",
      "  Metadata:\n",
      "    major_brand     : isom\n",
      "    minor_version   : 512\n",
      "    compatible_brands: isomiso2avc1mp41\n",
      "    encoder         : Lavf58.76.100\n",
      "  Duration: 00:01:22.18, start: 0.000000, bitrate: 719 kb/s\n",
      "  Stream #0:0(und): Video: h264 (Main) (avc1 / 0x31637661), yuv420p(tv, bt709), 1280x640 [SAR 1:1 DAR 2:1], 581 kb/s, 29.97 fps, 29.97 tbr, 30k tbn, 59.94 tbc (default)\n",
      "    Metadata:\n",
      "      handler_name    : ISO Media file produced by Google Inc. Created on: 10/07/2023.\n",
      "      vendor_id       : [0][0][0][0]\n",
      "  Stream #0:1(und): Audio: aac (LC) (mp4a / 0x6134706D), 44100 Hz, stereo, fltp, 128 kb/s (default)\n",
      "    Metadata:\n",
      "      handler_name    : ISO Media file produced by Google Inc. Created on: 10/07/2023.\n",
      "      vendor_id       : [0][0][0][0]\n",
      "Output #0, mp4, to 'temp-files/video_without_audio.mp4':\n",
      "  Metadata:\n",
      "    major_brand     : isom\n",
      "    minor_version   : 512\n",
      "    compatible_brands: isomiso2avc1mp41\n",
      "    encoder         : Lavf58.76.100\n",
      "  Stream #0:0(und): Video: h264 (Main) (avc1 / 0x31637661), yuv420p(tv, bt709), 1280x640 [SAR 1:1 DAR 2:1], q=2-31, 581 kb/s, 29.97 fps, 29.97 tbr, 30k tbn, 30k tbc (default)\n",
      "    Metadata:\n",
      "      handler_name    : ISO Media file produced by Google Inc. Created on: 10/07/2023.\n",
      "      vendor_id       : [0][0][0][0]\n",
      "Stream mapping:\n",
      "  Stream #0:0 -> #0:0 (copy)\n",
      "Press [q] to stop, [?] for help\n",
      "frame= 2463 fps=0.0 q=-1.0 Lsize=    5861kB time=00:01:22.08 bitrate= 585.0kbits/s speed= 949x    \n",
      "video:5834kB audio:0kB subtitle:0kB other streams:0kB global headers:0kB muxing overhead: 0.469163%\n"
     ]
    }
   ],
   "source": [
    "import os\n",
    "\n",
    "def extract_audio_and_remove(video_path, output_prefix):\n",
    "    # Create a folder named 'temp-files' if it doesn't exist\n",
    "    os.makedirs('temp-files', exist_ok=True)\n",
    "\n",
    "    # Extract the audio\n",
    "    audio_output_path = os.path.join('temp-files', 'audio.mp3')\n",
    "    os.system(f\"ffmpeg -i {video_path} -vn -ar 44100 -ac 2 -ab 192k -f mp3 {audio_output_path}\")\n",
    "\n",
    "    # Remove the audio from the video\n",
    "    video_output_path = os.path.join('temp-files', 'video_without_audio.mp4')\n",
    "    os.system(f\"ffmpeg -i {video_path} -c:v copy -an {video_output_path}\")\n",
    "\n",
    "video_path = \"original-video/video.mp4\"\n",
    "output_prefix = \"output\"\n",
    "\n",
    "extract_audio_and_remove(video_path, output_prefix)"
   ]
  },
  {
   "cell_type": "code",
   "execution_count": 4,
   "metadata": {},
   "outputs": [
    {
     "name": "stdout",
     "output_type": "stream",
     "text": [
      "Segment 1 exported to temp-files/segments/segment_1.wav\n",
      "Segment 2 exported to temp-files/segments/segment_2.wav\n",
      "Segment 3 exported to temp-files/segments/segment_3.wav\n",
      "Segment 4 exported to temp-files/segments/segment_4.wav\n",
      "Segment 5 exported to temp-files/segments/segment_5.wav\n",
      "Segment 6 exported to temp-files/segments/segment_6.wav\n",
      "Segment 7 exported to temp-files/segments/segment_7.wav\n",
      "Segment 8 exported to temp-files/segments/segment_8.wav\n",
      "Segment 9 exported to temp-files/segments/segment_9.wav\n",
      "Segment 10 exported to temp-files/segments/segment_10.wav\n",
      "Segment 11 exported to temp-files/segments/segment_11.wav\n",
      "Segment 12 exported to temp-files/segments/segment_12.wav\n",
      "Segment 13 exported to temp-files/segments/segment_13.wav\n",
      "Segment 14 exported to temp-files/segments/segment_14.wav\n",
      "Segment 15 exported to temp-files/segments/segment_15.wav\n",
      "Segment 16 exported to temp-files/segments/segment_16.wav\n",
      "Segment 17 exported to temp-files/segments/segment_17.wav\n",
      "Segment 18 exported to temp-files/segments/segment_18.wav\n",
      "Segment 19 exported to temp-files/segments/segment_19.wav\n",
      "Segment 20 exported to temp-files/segments/segment_20.wav\n",
      "Segment 21 exported to temp-files/segments/segment_21.wav\n"
     ]
    }
   ],
   "source": [
    "from pydub import AudioSegment\n",
    "from pydub.silence import detect_silence\n",
    "import os\n",
    "\n",
    "def save_segments(segments):\n",
    "    # Ensure the 'segments' folder exists or create it\n",
    "    output_folder = 'temp-files/segments'\n",
    "    os.makedirs(output_folder, exist_ok=True)\n",
    "\n",
    "    for i, segment in enumerate(segments):\n",
    "        output_file = f\"{output_folder}/segment_{i + 1}.wav\"\n",
    "        segment.export(output_file, format=\"wav\")\n",
    "        print(f\"Segment {i + 1} exported to {output_file}\")\n",
    "\n",
    "def split_audio(input_file, silence_threshold=-40, silence_duration=500):\n",
    "    # Load the audio file\n",
    "    audio = AudioSegment.from_file(input_file)\n",
    "\n",
    "    # Detect all silent sections\n",
    "    silent_sections = detect_silence(audio, silence_thresh=silence_threshold, min_silence_len=silence_duration)\n",
    "\n",
    "    # Store all segments, including silent periods\n",
    "    all_segments = []\n",
    "    all_segments.append(audio[:silent_sections[0][0]])\n",
    "    for i, section in enumerate(silent_sections):\n",
    "        start, end = section\n",
    "\n",
    "        # If it's not the first section, store the non-silent period before this section\n",
    "        if i > 0:\n",
    "            prev_end = silent_sections[i-1][1]\n",
    "            non_silent_period = audio[prev_end:start]\n",
    "            all_segments.append(non_silent_period)\n",
    "\n",
    "        # Store the silent section\n",
    "        silence_period = audio[start:end]\n",
    "        all_segments.append(silence_period)\n",
    "\n",
    "    # If there's a non-silent section after the last silent section, store it\n",
    "    if silent_sections and silent_sections[-1][1] < len(audio):\n",
    "        last_end = silent_sections[-1][1]\n",
    "        non_silent_period = audio[last_end:]\n",
    "        all_segments.append(non_silent_period)\n",
    "\n",
    "    return all_segments\n",
    "\n",
    "# Example usage\n",
    "input_file = \"temp-files/audio.mp3\"\n",
    "all_segments = split_audio(input_file)\n",
    "\n",
    "# Save segments to the current directory\n",
    "save_segments(all_segments)"
   ]
  }
 ],
 "metadata": {
  "kernelspec": {
   "display_name": "Python 3",
   "language": "python",
   "name": "python3"
  },
  "language_info": {
   "codemirror_mode": {
    "name": "ipython",
    "version": 3
   },
   "file_extension": ".py",
   "mimetype": "text/x-python",
   "name": "python",
   "nbconvert_exporter": "python",
   "pygments_lexer": "ipython3",
   "version": "3.10.12"
  },
  "orig_nbformat": 4
 },
 "nbformat": 4,
 "nbformat_minor": 2
}
